<?xml version="1.0" encoding="utf-8"?>
<!DOCTYPE svg PUBLIC "-//W3C//DTD SVG 1.1//EN" "http://www.w3.org/Graphics/SVG/1.1/DTD/svg11.dtd">
<svg xmlns="http://www.w3.org/2000/svg" xmlns:xlink="http://www.w3.org/1999/xlink" version="1.1" viewBox="0 0 512 512" enable-background="new 0 0 512 512" width="512px" height="512px">
  <g>
    <g>
      <path d="m487.1,377.3l-5.2-20.2-199.3,51.6c-8.8-29.7-36.4-51.6-69-51.6-7.6,0-15,1.2-21.9,3.4l-65.7-279.6-87.5-69.9-13.6,15.6 82.4,65.7 65.7,277.4c-18.9,13-31.4,34.7-31.4,59.3 0,39.6 32.3,71.9 71.9,71.9 40.5,0 71.7-32.1 71.9-71.5l201.7-52.1zm-273.5,103.9c-29.2,0-52.1-24-52.1-52.1 0-29.2 24-52.1 52.1-52.1 29.2,0 52.1,22.9 52.1,52.1s-23.9,52.1-52.1,52.1z" fill="#000000"/>
      <path d="m239.7,202.8l43.8,172 179.3-45.8-43.8-172-37.1,9.5-30.7-121-141.8,36.4 30.7,120.8-.4,.1zm96.9-131.3l25,100.1-102.2,26.1-25-100.1 102.2-26.1zm101.2,242.9l-139.7,35.4-33.4-132.4 139.7-35.4 33.4,132.4z" fill="#000000"/>
    </g>
  </g>
</svg>
